<svg width="169" height="169" viewBox="0 0 169 169" fill="none" xmlns="http://www.w3.org/2000/svg">
<path d="M95.9666 135.348L98.7828 131.176C108.479 117.645 108.074 107.997 105.241 101.348C102.306 109.998 97.0501 117.937 89.896 124.526C89.2286 125.019 88.3632 125.269 87.4845 125.222H81.8186C81.2893 125.233 80.7634 125.146 80.2772 124.966C79.791 124.786 79.3561 124.517 79.0024 124.179C71.8483 117.589 66.5925 109.651 63.6571 101C60.8241 107.591 60.8241 117.312 70.1156 130.828L72.9486 135L67.2827 143.33L84.2468 169L101.211 143.33L95.9666 135.348Z" fill="#D6CCE8"/>
<path d="M123.444 52.7944C117.799 46.5858 113.333 38.3894 113.333 25.5545C113.333 19.6916 107.283 13.8144 100.425 8.26848C92.3528 2.05992 90.7351 0 84.2809 0C77.8268 0 76.209 2.05992 68.5416 8.26848C61.683 13.7856 55.6332 19.6628 55.6332 25.5545C55.6332 38.3173 50.78 46.5858 45.5223 52.463L21.7447 73.1486L4 62.8058V81.4315C4 81.4315 4.40444 117.991 66.9407 138C66.9407 138 43.1294 127.657 39.5063 93.1572C39.1018 90.7516 39.1018 80.0486 39.1018 78.3344C45.8375 87.3428 53.5381 95.7965 62.1043 103.586C60.8909 101.858 59.6776 99.7835 58.4643 98.0693C50.0385 82.8864 51.6057 71.8522 55.6501 64.2607C58.4647 59.1581 62.7714 54.7622 68.154 51.4979L84.2978 65.2979L100.442 51.4979C105.824 54.7622 110.131 59.1581 112.945 64.2607C116.99 71.8522 118.995 82.8864 110.536 97.7236C109.322 99.7115 108.092 101.44 106.896 103.586C115.462 95.7965 123.163 87.3428 129.898 78.3344C129.898 80.0486 129.898 90.7516 129.494 93.1572C125.466 127.657 102.059 138 102.059 138C164.596 117.991 165 81.4315 165 81.4315V62.8058L147.255 73.1486L123.444 52.7944Z" fill="#D6CCE8"/>
</svg>
