<svg width="165" height="165" viewBox="0 0 165 165" fill="none" xmlns="http://www.w3.org/2000/svg">
<path d="M111.936 92.9775V102.052C126.159 87.8295 135.647 102.052 135.647 102.052C185.031 67.287 149.078 3.29999 149.078 3.29999C149.078 3.29999 147.89 31.746 124.196 49.1205V76.3785C123.8 84.282 117.86 89.4135 111.936 92.9775ZM29.3535 102.448C29.3535 102.448 36.069 91.7895 47.1405 98.109L34.5015 79.53L45.5565 53.13C17.1105 35.739 15.8565 3.74549 15.8565 3.74549C15.8565 3.74549 -20.031 67.65 29.3535 102.448ZM44.3685 138.418L53.46 107.596L53.064 106.804L31.7295 128.535C26.5889 133.747 19.6855 136.848 12.375 137.23H4.95002L3.30002 141.174L23.1 160.149L44.3685 138.418ZM152.246 138.418C148.595 138.365 144.993 137.567 141.662 136.071C138.331 134.576 135.341 132.416 132.875 129.723L113.52 110.352L119.84 139.59L141.57 161.7L161.37 142.742L159.72 138.781L152.246 138.418ZM92.1855 70.455C92.1855 70.851 91.7895 71.247 91.7895 71.6265H92.9775C102.465 72.4185 105.617 75.9825 107.993 84.282C109.472 83.4502 110.805 82.3798 111.936 81.114C113.586 79.464 114.708 78.3585 114.708 76.7745V46.3485C114.687 45.5803 114.399 44.8435 113.893 44.2651C113.387 43.6868 112.695 43.3032 111.936 43.1805L60.1755 33.7095H59.4C58.3541 33.7095 57.3511 34.125 56.6116 34.8645C55.872 35.6041 55.4565 36.6071 55.4565 37.653V48.7245L96.5415 54.252L92.1855 70.455Z" fill="#D6CCE8"/>
<path d="M99.297 89.1C97.317 80.4045 96.921 81.5925 89.8095 81.1965L67.287 79.2V72.8145H76.3785C77.9193 72.8499 79.4258 72.3569 80.6476 71.4173C81.8693 70.4777 82.7326 69.1483 83.094 67.65L84.744 62.1225L53.46 57.75L45.21 77.913L64.581 105.963L55.44 136.439L82.302 161.7L109.576 136.835C109.576 136.835 99.297 89.8095 99.297 88.9845M82.302 3.6795L74.3985 20.658L82.302 26.9775L90.2055 20.658L82.302 3.6795ZM102.465 15.5265L104.824 25.4265H114.724L119.46 7.2765L102.465 15.5265ZM49.9125 25.41H59.8125L60.2085 24.222L62.1885 15.5265L45.1935 7.2765L49.9125 25.41Z" fill="#D6CCE8"/>
</svg>
