<svg width="70" height="70" viewBox="0 0 70 70" fill="none" xmlns="http://www.w3.org/2000/svg">
    <path d="M8.75204 0C15.2138 4.235 31.5728 17.5805 37.2821 34.8355C42.9914 52.0905 37.2821 70 37.2821 70C26.0394 58.926 13.1812 51.8 12.0075 51.163L11.9257 51.1175C10.0199 41.349 0 23.765 0 23.765C14.4613 26.7995 20.1624 38.7415 20.1624 38.7415C18.641 23.443 8.75204 0 8.75204 0ZM70 20.6745C70 20.6745 64.9165 29.323 62.5812 36.7885C61.6201 39.8615 61.4156 44.4885 61.3952 47.4915V48.4785C61.4075 49.693 61.4361 50.4665 61.4361 50.4665C61.4361 50.4665 54.3281 58.856 47.6128 63.3395C47.9727 57.736 47.8663 51.317 46.7621 44.6705C50.5574 37.59 58.4015 25.5815 70 20.6745ZM61.3134 2.016C61.3134 2.016 51.8047 12.698 49.7149 23.1175C49.265 25.3435 48.8928 27.2965 48.5534 29.05C47.0034 31.094 45.5679 33.131 44.2592 35.1155C44.1242 34.678 44.0138 34.2405 43.8707 33.803C42.6355 30.058 40.9915 26.4705 39.1266 23.023C39.3433 22.512 39.5478 22.008 39.8218 21.49C39.8218 21.49 47.2406 8.26 61.3134 2.016Z" fill="#D6CCE8"/>
</svg>
