<svg width="165" height="165" viewBox="0 0 165 165" fill="none" xmlns="http://www.w3.org/2000/svg">
<path d="M139.392 127.545H161.518L155.199 106.211H139.392C130.794 106.215 122.295 108.049 114.461 111.591C106.626 115.133 99.6346 120.301 93.9509 126.753L82.4999 140.25L71.0489 126.819C65.3713 120.355 58.3827 115.175 50.5477 111.621C42.7127 108.068 34.211 106.224 25.6079 106.211H9.80094L3.48145 127.545H25.6079C34.206 127.55 42.7046 129.384 50.5393 132.926C58.3739 136.468 65.3653 141.636 71.0489 148.088L72.2204 149.276H57.2054V161.519H108.19V149.276H93.1754L94.3469 148.088C99.9254 141.613 106.841 136.423 114.617 132.877C122.393 129.331 130.845 127.512 139.392 127.545Z" fill="#D6CCE8"/>
<path d="M92.7795 89.6115L82.5 102.646L72.2205 89.6115C71.0146 88.1116 70.3247 86.2626 70.2534 84.3394C70.182 82.4161 70.733 80.5211 71.8245 78.936L82.5 61.5615L93.1755 78.936C94.267 80.5211 94.818 82.4161 94.7467 84.3394C94.6753 86.2626 93.9855 88.1116 92.7795 89.6115ZM70.257 47.7345L57.2055 68.673C54.8701 72.4591 53.7338 76.8627 53.9458 81.3061C54.1579 85.7495 55.7082 90.025 58.3935 93.5715L82.5 123.981L106.607 93.5715C109.374 90.0622 110.975 85.7764 111.188 81.3125C111.401 76.8487 110.215 72.4297 107.795 68.673L82.5 28.05L81.708 29.238C80.7898 30.1817 79.6798 30.9174 78.453 31.3956C77.2263 31.8738 75.9112 32.0833 74.5965 32.01C67.881 32.01 62.7495 17.787 82.104 3.564C82.104 3.564 34.683 12.639 57.6015 53.7405L70.257 47.7345Z" fill="#D6CCE8"/>
</svg>
