<svg width="165" height="165" viewBox="0 0 165 165" fill="none" xmlns="http://www.w3.org/2000/svg">
<g clip-path="url(#clip0_14_118)">
<path d="M51.1722 48.0739H62.6232L65.7912 36.6229L43.6647 23.5714L51.1722 48.0739ZM121.495 48.0739L129.003 23.5714L106.876 36.6229L110.044 48.0739H121.495ZM121.495 61.5049C119.136 61.5049 101.349 55.1854 101.349 55.1854L86.3337 72.9724L71.3187 55.1854C71.3187 55.1854 53.9277 61.5049 51.1722 61.5049C38.5167 61.5049 43.2687 49.6579 43.2687 49.6579C43.2687 49.6579 10.8627 82.8394 7.31519 108.926C7.31519 108.926 16.7862 94.3069 47.6082 87.1954C52.316 96.919 60.4914 104.529 70.5267 108.53C69.3387 103.398 68.1507 97.4584 66.9792 91.9309C64.5688 89.8441 62.439 87.4537 60.6432 84.8194C61.8312 84.8194 72.5067 83.6314 74.0907 83.6314C75.2622 87.9874 81.5982 131.052 81.5982 131.052L70.0482 148.047V164.547L86.3337 157.914L102.537 164.63V147.651L90.9867 130.656C90.9867 130.656 97.3227 87.5914 98.4942 83.2354C99.6822 83.2354 110.358 84.4234 111.942 84.4234C110.263 87.1474 108.119 89.5547 105.606 91.5349C104.134 97.0021 102.95 102.543 102.058 108.134C112.205 104.279 120.453 96.6278 125.059 86.7994C155.881 94.3069 165.352 108.53 165.352 108.53C161.805 82.8394 129.399 49.3114 129.399 49.3114C129.399 49.3114 134.151 61.5544 121.495 61.5544" fill="#D6CCE8"/>
<path d="M82.5001 3.4815L69.8611 38.643H70.2571L82.5001 54.846L94.7431 38.643H95.1391L82.5001 3.4815Z" fill="#D6CCE8"/>
</g>
<defs>
<clipPath id="clip0_14_118">
<rect width="165" height="165" fill="white"/>
</clipPath>
</defs>
</svg>
