<svg width="158" height="158" viewBox="0 0 158 158" fill="none" xmlns="http://www.w3.org/2000/svg">
<path d="M145.642 0C145.642 45.045 103.732 60.4395 103.732 60.4395L97.0328 97.1685C96.5783 98.4374 96.3115 99.766 96.2408 101.112C96.3533 104.076 97.6099 106.881 99.7466 108.938C101.883 110.995 104.734 112.145 107.7 112.145C110.666 112.145 113.517 110.995 115.654 108.938C117.79 106.881 119.047 104.076 119.159 101.112C119.186 98.4324 118.239 95.8343 116.494 93.8007C114.749 91.7672 112.324 90.4368 109.672 90.057C120.743 71.082 136.55 80.157 136.55 80.157C138.91 77.781 140.89 75.405 142.87 73.4415L131.006 68.6895H146.417C150.58 63.0667 153.786 56.7947 155.905 50.127L140.032 43.857H157.027C158.389 36.158 158.077 28.2558 156.113 20.688C154.148 13.1202 150.577 6.06423 145.642 0ZM54.7598 60.4395C54.7598 60.4395 12.8663 45.045 12.8663 0C12.8663 0 -3.33665 17.7705 0.623346 43.065H17.6183L1.81135 49.3185C3.45685 54.4636 5.71133 59.3935 8.52685 64.0035H26.6768L12.4703 69.927C15.0299 73.51 17.943 76.8266 21.1658 79.827C21.1658 79.827 36.9728 70.7355 48.0443 89.727C45.3917 90.1068 42.9673 91.4372 41.2221 93.4707C39.4769 95.5042 38.5298 98.1024 38.5568 100.782C38.5157 102.481 38.8528 104.168 39.5438 105.721C40.2347 107.274 41.2623 108.654 42.552 109.761C43.8418 110.868 45.3615 111.675 47.0013 112.122C48.641 112.57 50.3597 112.647 52.0331 112.349C53.7064 112.051 55.2926 111.384 56.6767 110.398C58.0609 109.411 59.2084 108.13 60.0363 106.645C60.8642 105.161 61.3517 103.511 61.4636 101.815C61.5755 100.119 61.309 98.4189 60.6833 96.8385L54.7598 60.4395ZM70.9628 33.9735L75.3023 22.9185H83.2058L87.5453 34.3695L79.2953 57.288L70.9628 33.9735ZM69.3128 7.5735L57.7628 33.9735L74.5103 75.8505V114.972L66.2603 141.372L74.5103 157.872H83.9318L92.1818 141.372L83.9318 114.972V75.8505L100.597 33.9735L89.0468 7.5735H69.3128Z" fill="#D6CCE8"/>
</svg>
