<svg width="165" height="165" viewBox="0 0 165 165" fill="none" xmlns="http://www.w3.org/2000/svg">
<path d="M141.768 105.418L90.7499 148.5V111.342H102.993V96.327H61.9574V111.342H74.2499V148.879L23.2319 105.418L13.7444 34.65L59.1854 17.3085C74.1858 11.4999 90.8141 11.4999 105.814 17.3085L151.255 34.65L141.768 105.418ZM109.362 8.25C92.0105 1.93615 72.9894 1.93615 55.638 8.25L3.48145 28.3635L14.5364 110.154L69.0689 156.75C72.8716 159.824 77.6103 161.506 82.4999 161.518C87.4014 161.575 92.1628 159.885 95.9309 156.75L150.463 110.154L161.518 28.3635L109.362 8.25Z" fill="#D6CCE8"/>
<path d="M129.921 53.262L102.3 35.079V43.7745H62.7V35.079L35.871 46.9425C34.9111 47.3754 34.1208 48.1129 33.6226 49.0407C33.1244 49.9685 32.9462 51.0347 33.1155 52.074L40.227 83.688C40.4804 84.5258 40.9368 85.288 41.5557 85.9068C42.1746 86.5257 42.9368 86.9821 43.7745 87.2355L62.3535 91.1955V82.5H101.855V91.1955L120.83 87.2355C121.726 87.1111 122.558 86.6974 123.199 86.0571C123.839 85.4168 124.253 84.5849 124.377 83.688L131.489 57.9975C131.805 57.1393 131.814 56.1976 131.513 55.3337C131.212 54.4698 130.62 53.7374 129.839 53.262M94.743 33.1155H70.257L82.5 19.272L94.743 33.1155Z" fill="#D6CCE8"/>
</svg>
